<?xml version="1.0" encoding="UTF-8" standalone="no"?>
<!-- Created with Inkscape (http://www.inkscape.org/) -->

<svg
   width="560mm"
   height="90mm"
   viewBox="0 0 560 90"
   version="1.1"
   id="svg1"
   inkscape:version="1.3.2 (091e20e, 2023-11-25)"
   sodipodi:docname="adirondax-logo.svg"
   inkscape:export-filename="adirondax_full0.svg"
   inkscape:export-xdpi="96"
   inkscape:export-ydpi="96"
   xmlns:inkscape="http://www.inkscape.org/namespaces/inkscape"
   xmlns:sodipodi="http://sodipodi.sourceforge.net/DTD/sodipodi-0.dtd"
   xmlns="http://www.w3.org/2000/svg"
   xmlns:svg="http://www.w3.org/2000/svg">
  <sodipodi:namedview
     id="namedview1"
     pagecolor="#ffffff"
     bordercolor="#000000"
     borderopacity="0.25"
     inkscape:showpageshadow="2"
     inkscape:pageopacity="0.0"
     inkscape:pagecheckerboard="0"
     inkscape:deskcolor="#d1d1d1"
     inkscape:document-units="mm"
     inkscape:zoom="30.393731"
     inkscape:cx="6.5474028"
     inkscape:cy="335.90809"
     inkscape:window-width="1728"
     inkscape:window-height="966"
     inkscape:window-x="0"
     inkscape:window-y="38"
     inkscape:window-maximized="0"
     inkscape:current-layer="layer1"
     showguides="true" />
  <defs
     id="defs1">
    <rect
       x="1867.587"
       y="-1155.0164"
       width="116.4331"
       height="400.52988"
       id="rect2" />
  </defs>
   <style>
      /* Enable light/dark color schemes */
      :root { color-scheme: light dark; }

      /* Dark mode: switch logo text and dark accents to white */
      @media (prefers-color-scheme: dark) {
         #text1,
         #rect1-09,
         #rect1-09-7 {
            fill: #ffffff !important;
         }
      }
   </style>
  <g
     inkscape:label="Layer 1"
     inkscape:groupmode="layer"
     id="layer1">
    <rect
       style="fill:#326484;fill-opacity:1;stroke-width:0.264584"
       id="rect1"
       width="40"
       height="10"
       x="5.7120318"
       y="4.5696254"
       ry="0.057884075"
       inkscape:label="rect1-top" />
    <rect
       style="fill:#326484;fill-opacity:1;stroke-width:0.32616"
       id="rect1-9"
       width="60.668476"
       height="10.019176"
       x="-1.8268815"
       y="58.888451"
       ry="0.05799507"
       inkscape:label="rect1-top"
       transform="matrix(0.92571251,-0.37822791,0.38668654,0.92221121,0,0)" />
    <rect
       style="fill:#326484;fill-opacity:1;stroke-width:0.247496"
       id="rect1-6"
       width="35"
       height="10"
       x="45.712032"
       y="74.569618"
       ry="0.057884075"
       inkscape:label="rect1-bot" />
    <rect
       style="fill:#001932;fill-opacity:1;stroke-width:0.48028"
       id="rect1-09-7"
       width="15.43562"
       height="85.387695"
       x="-54.299465"
       y="4.8773723"
       ry="0.49425873"
       transform="matrix(-1,0,0.3495889,0.9369032,0,0)"
       inkscape:label="rect1-ar" />
    <rect
       style="fill:#001932;fill-opacity:1;stroke-width:0.48028"
       id="rect1-09"
       width="15.43562"
       height="85.387695"
       x="37.124825"
       y="4.8773723"
       ry="0.49425873"
       transform="matrix(1,0,-0.3495889,0.9369032,0,0)"
       inkscape:label="rect1-al" />
    <path
       style="font-weight:bold;font-size:88.1944px;font-family:Arial;-inkscape-font-specification:Arial;fill:#001932;stroke-width:0.264583"
       d="m 93.815611,21.43759 h 23.297439 q 7.88066,0 12.01477,1.205783 5.55521,1.636419 9.51707,5.813595 3.96186,4.177176 6.02891,10.249154 2.06706,6.028914 2.06706,14.90003 0,7.794524 -1.93787,13.435865 -2.3685,6.890187 -6.76099,11.153491 -3.3159,3.229775 -8.95724,5.038449 -4.22024,1.334974 -11.28269,1.334974 H 93.815611 Z m 12.746849,10.67979 v 41.814824 h 9.51707 q 5.33989,0 7.70839,-0.602891 3.10059,-0.775146 5.12458,-2.626884 2.06706,-1.851738 3.35897,-6.071978 1.29191,-4.263303 1.29191,-11.584127 0,-7.320824 -1.29191,-11.239618 -1.29191,-3.918794 -3.61735,-6.115041 -2.32544,-2.196247 -5.89972,-2.971393 -2.66995,-0.602892 -10.46448,-0.602892 z m 50.59981,52.451551 V 21.43759 h 12.74685 v 63.131341 z m 24.93386,0 V 21.43759 h 26.82867 q 10.11996,0 14.68471,1.722547 4.60781,1.679483 7.36389,6.028914 2.75607,4.34943 2.75607,9.947707 0,7.105506 -4.17717,11.756382 -4.17718,4.607813 -12.48847,5.813596 4.13412,2.411566 6.80406,5.296831 2.71301,2.885266 7.27776,10.249154 l 7.7084,12.31621 H 223.60951 L 214.39389,70.83162 q -4.90926,-7.363888 -6.71794,-9.258689 -1.80867,-1.937865 -3.83266,-2.626884 -2.024,-0.732083 -6.41649,-0.732083 h -2.58382 v 26.354967 z m 12.74685,-36.431865 h 9.43094 q 9.17257,0 11.45494,-0.775146 2.28237,-0.775147 3.57428,-2.669948 1.29191,-1.894802 1.29191,-4.737004 0,-3.186711 -1.72254,-5.124577 -1.67949,-1.980928 -4.78007,-2.497692 -1.55029,-0.215319 -9.30175,-0.215319 h -9.94771 z m 48.31745,5.253767 q 0,-9.646262 2.88526,-16.19194 2.15319,-4.823131 5.85666,-8.655797 3.74654,-3.832667 8.1821,-5.684405 5.89972,-2.497693 13.60812,-2.497693 13.95263,0 22.30698,8.655798 8.39742,8.655798 8.39742,24.072592 0,15.287603 -8.31129,23.9434 -8.31129,8.612734 -22.22086,8.612734 -14.08182,0 -22.3931,-8.56967 -8.31129,-8.612734 -8.31129,-23.685019 z m 13.13442,-0.430636 q 0,10.722854 4.95232,16.278067 4.95232,5.51215 12.57459,5.51215 7.62227,0 12.48846,-5.469086 4.90926,-5.51215 4.90926,-16.493386 0,-10.852045 -4.78006,-16.19194 -4.73701,-5.339895 -12.61766,-5.339895 -7.88065,0 -12.70378,5.426022 -4.82313,5.382959 -4.82313,16.278068 z m 58.17901,31.608734 V 21.43759 h 12.40233 L 352.7144,63.596923 V 21.43759 h 11.8425 V 84.568931 H 351.76699 L 326.31637,43.400062 v 41.168869 z m 63.5189,-63.131341 h 23.29745 q 7.88065,0 12.01476,1.205783 5.55522,1.636419 9.51707,5.813595 3.96186,4.177176 6.02892,10.249154 2.06705,6.028914 2.06705,14.90003 0,7.794524 -1.93786,13.435865 -2.3685,6.890187 -6.761,11.153491 -3.3159,3.229775 -8.95724,5.038449 -4.22024,1.334974 -11.28268,1.334974 h -23.98647 z m 12.74685,10.67979 v 41.814824 h 9.51707 q 5.3399,0 7.7084,-0.602891 3.10058,-0.775146 5.12458,-2.626884 2.06705,-1.851738 3.35896,-6.071978 1.29191,-4.263303 1.29191,-11.584127 0,-7.320824 -1.29191,-11.239618 -1.29191,-3.918794 -3.61735,-6.115041 -2.32544,-2.196247 -5.89972,-2.971393 -2.66995,-0.602892 -10.46447,-0.602892 z m 107.91758,52.451551 h -13.8665 l -5.51215,-14.340203 h -25.23531 l -5.2107,14.340203 h -13.522 L 459.89989,21.43759 h 13.47893 z m -23.4697,-24.976929 -8.69886,-23.426637 -8.52661,23.426637 z M 499.0017,84.568931 520.57659,51.625223 501.02569,21.43759 h 14.90003 l 12.66072,20.282989 12.40233,-20.282989 h 14.77084 l -19.63703,30.661333 21.5749,32.470008 H 542.32375 L 528.32805,62.73565 514.2893,84.568931 Z"
       id="text1"
       aria-label="DIRONDAX" />
    <text
       xml:space="preserve"
       transform="matrix(0.26458333,0,0,0.26458333,5.7120318,4.5696255)"
       id="text2"
       style="font-style:normal;font-variant:normal;font-weight:normal;font-stretch:normal;font-size:333.333px;font-family:'Noto Sans Linear A';-inkscape-font-specification:'Noto Sans Linear A';white-space:pre;shape-inside:url(#rect2);display:inline;fill:#001932" />
  </g>
</svg>
